<svg width="101" height="100" viewBox="0 0 101 100" fill="none" xmlns="http://www.w3.org/2000/svg">
<path fill-rule="evenodd" clip-rule="evenodd" d="M70.018 22.6447C68.8429 23.3357 67.7349 24.0563 66.9351 24.6497C66.4945 24.9766 65.9482 25.3759 65.7212 25.5371C64.1479 26.6541 60.9265 29.3764 61.0128 29.516C61.0514 29.5784 61.0306 29.5912 60.9607 29.548C60.8262 29.4649 60.0037 30.1654 60.0541 30.32C60.072 30.3749 60.0545 30.3877 60.0152 30.3484C59.9338 30.267 59.7766 30.4023 57.4593 32.5469C56.5336 33.4037 55.8043 34.1504 55.8387 34.2061C55.8731 34.2618 55.8564 34.2796 55.8014 34.2457C55.7032 34.185 52.0253 37.8521 50.6035 39.4286C50.2039 39.8718 49.8351 40.2343 49.7842 40.2343C49.7333 40.2343 49.4152 39.9916 49.0773 39.6949C48.7394 39.3983 48.4069 39.1675 48.3384 39.1822C48.27 39.1969 48.21 39.143 48.2051 39.0624C48.2003 38.9818 48.1433 38.927 48.0787 38.9403C48.0139 38.9538 47.9719 38.9273 47.9854 38.8815C48.04 38.6951 45.7695 36.9663 45.6043 37.0685C45.5332 37.1124 45.5155 37.0974 45.5577 37.029C45.6431 36.8908 43.961 35.6252 43.7811 35.6924C43.7112 35.7185 43.678 35.701 43.7073 35.6535C43.7748 35.5444 43.5321 35.4491 43.1861 35.4491C42.8964 35.4491 42.3378 35.9404 42.4665 36.082C42.5075 36.1271 42.4911 36.1355 42.43 36.1006C42.3662 36.0642 42.1537 36.2544 41.9296 36.5488C41.2746 37.4095 41.1994 37.6663 41.4571 38.1646C41.6316 38.5021 43.1466 39.7756 43.2774 39.6947C43.3316 39.6612 43.3639 39.692 43.3492 39.7632C43.3344 39.8343 43.3805 39.8804 43.4516 39.8656C43.5228 39.8509 43.5568 39.8779 43.5272 39.9259C43.4547 40.0431 45.3096 41.7196 45.4297 41.6454C45.4818 41.6133 45.5124 41.6451 45.4976 41.7163C45.4829 41.7874 45.529 41.8335 45.6001 41.8188C45.6712 41.804 45.7064 41.8292 45.6782 41.8748C45.6148 41.9774 47.1151 43.4827 47.2093 43.4111C47.2467 43.3826 47.2564 43.3876 47.2307 43.4222C47.1612 43.516 49.3982 45.815 49.8059 46.0687C49.9998 46.1894 50.2732 46.2882 50.4136 46.2885C50.715 46.2891 51.2139 45.9287 51.1207 45.7777C51.085 45.72 51.1002 45.7003 51.1544 45.7338C51.2996 45.8234 51.6879 45.37 51.6192 45.191C51.5872 45.1075 51.6074 45.0105 51.6641 44.9754C51.7298 44.9349 51.7433 44.9757 51.7013 45.0876C51.6427 45.2438 51.6543 45.2481 51.8045 45.1259C51.8976 45.0501 51.9503 44.927 51.9216 44.8522C51.8929 44.7774 51.9103 44.7415 51.9601 44.7724C52.0691 44.8397 53.1836 43.4707 53.1902 43.2616C53.1926 43.1811 53.2434 43.1247 53.303 43.1364C53.4427 43.164 53.9316 42.5265 53.8406 42.4355C53.8026 42.3975 53.8191 42.3811 53.8772 42.399C54.0561 42.4541 55.5819 40.5567 55.5179 40.3586C55.4768 40.2312 55.4865 40.2195 55.5545 40.3144C55.6259 40.414 55.7083 40.3695 55.9164 40.1191C56.0645 39.9407 56.3457 39.6191 56.5411 39.4041C56.7366 39.1892 57.0462 38.8376 57.2292 38.6229C57.4121 38.4081 57.8515 37.9051 58.2057 37.5051C58.5599 37.1052 59.0639 36.5339 59.3258 36.2356C59.5877 35.9373 59.8668 35.6412 59.946 35.5778C60.0266 35.513 60.0575 35.4097 60.0163 35.3429C59.9724 35.272 59.9832 35.2488 60.0429 35.2857C60.0981 35.3198 60.3761 35.0959 60.6608 34.7881C60.9454 34.4803 61.5262 33.8681 61.9515 33.4277C62.4363 32.9256 62.6976 32.583 62.652 32.5093C62.6087 32.4392 62.6204 32.417 62.6809 32.4544C62.7817 32.5167 63.0713 32.2501 63.0245 32.1382C63.011 32.1062 63.055 32.0781 63.1221 32.0756C63.1893 32.0732 63.2321 32.015 63.2173 31.9462C63.2026 31.8776 63.228 31.8446 63.2738 31.8728C63.4112 31.9577 64.4989 30.7981 64.4128 30.6586C64.3654 30.5821 64.3768 30.5607 64.443 30.6017C64.5013 30.6377 64.662 30.5625 64.8 30.4347C65.0922 30.1638 65.1212 30.0589 64.8799 30.1455C64.786 30.1792 64.7379 30.1745 64.7733 30.1351C64.8087 30.0956 64.9185 30.0498 65.0174 30.0333C65.1164 30.0168 65.1864 29.9542 65.1729 29.8942C65.1595 29.8342 65.2035 29.7961 65.2706 29.8095C65.3378 29.823 65.3805 29.7757 65.3658 29.7046C65.351 29.6334 65.3773 29.599 65.4241 29.6279C65.5267 29.6913 66.0514 29.165 65.9799 29.0703C65.9523 29.0337 65.9604 29.0272 65.9978 29.0557C66.1031 29.1357 67.5879 27.6161 67.5206 27.4973C67.4878 27.4397 67.4969 27.4251 67.5409 27.4649C67.6502 27.564 67.8961 27.3464 67.8178 27.2199C67.7834 27.164 67.7994 27.1456 67.8536 27.1791C67.957 27.243 68.355 26.8772 68.3652 26.7089C68.3685 26.6552 68.4261 26.6093 68.4932 26.6069C68.5604 26.6044 68.6006 26.5385 68.5828 26.4604C68.5648 26.3823 68.584 26.3522 68.6255 26.3935C68.7258 26.494 69.454 25.7765 69.3774 25.6526C69.3445 25.5993 69.3603 25.5822 69.4126 25.6145C69.5133 25.6767 71.2424 23.9662 71.5387 23.5111C71.8223 23.0756 71.545 22.2008 71.1923 22.4187C71.1247 22.4606 71.1008 22.4498 71.1359 22.3931C71.2847 22.1523 70.5892 22.3088 70.018 22.6447ZM37.3165 24.3869C36.9556 24.5224 36.5957 24.866 36.4283 25.2344C36.254 25.6184 36.2464 26.1715 36.2454 38.8183L36.2442 52.0018L36.4763 52.5005C36.6617 52.8986 36.7958 53.0414 37.141 53.2085L37.5734 53.4179H50.5568C63.0002 53.4179 63.5544 53.4103 63.8805 53.2373C64.0751 53.134 64.3254 52.8726 64.4649 52.6269L64.709 52.1972L64.7358 42.8466C64.7521 37.1538 64.7272 33.496 64.6721 33.496C64.6224 33.496 64.1819 33.9185 63.6932 34.4348L62.8047 35.3736V43.468V51.5624H50.5001H38.1954V38.8671V26.1718H50.0254H61.8555L62.9649 25.2777C63.5751 24.7859 64.0743 24.3684 64.0743 24.3499C64.0743 24.2921 37.471 24.3288 37.3165 24.3869ZM15.2571 61.6777C14.39 61.9109 13.5845 62.3977 12.8514 63.1317C11.8078 64.1766 11.3388 65.3285 11.3411 66.8417C11.3432 68.3244 11.7962 69.4156 12.8461 70.4678C13.6798 71.3035 14.4936 71.7241 15.7076 71.947C17.3624 72.2508 19.1026 71.7516 20.3419 70.6176C20.8432 70.1587 21.4962 69.3178 21.4962 69.1308C21.4962 69.0903 21.1439 68.9211 20.7132 68.7551L19.9304 68.4532L19.3483 69.0754C18.5261 69.9544 17.8499 70.2517 16.6622 70.2563C15.8962 70.2592 15.7043 70.2234 15.1689 69.9779C12.5007 68.7543 12.5007 64.8457 15.1689 63.6136C15.7106 63.3635 15.893 63.3299 16.711 63.3299C17.5093 63.3299 17.7153 63.3659 18.1876 63.5873C18.8104 63.8794 19.4417 64.4125 19.7442 64.9019C19.8572 65.0846 19.9914 65.2342 20.0424 65.2342C20.0935 65.2342 20.4863 65.0989 20.9152 64.9335L21.6952 64.6327L21.4736 64.2264C21.1417 63.6179 19.968 62.494 19.291 62.1362C18.9643 61.9636 18.4387 61.755 18.1229 61.6728C17.4073 61.4864 15.9591 61.4888 15.2571 61.6777ZM55.2852 61.6803C52.0425 62.5509 50.4138 65.9582 51.8198 68.9296C52.2848 69.9125 53.2318 70.8889 54.1586 71.3413C54.9303 71.7179 55.8263 71.9725 56.3799 71.9725H56.7501V71.1073V70.242L56.2015 70.1854C55.0724 70.0689 53.9469 69.2509 53.4463 68.1831C53.2206 67.7014 53.1858 67.5023 53.1872 66.6991C53.1883 65.9266 53.2267 65.6943 53.4161 65.3108C53.9555 64.2183 55.053 63.429 56.1966 63.3109L56.7501 63.2538V62.3885V61.5233L56.2862 61.5298C56.0311 61.5333 55.5806 61.601 55.2852 61.6803ZM25.2306 66.7723L25.2559 71.9237L26.1592 71.9518L27.0626 71.9798V69.8751V67.7705L30.0655 67.7963L33.0684 67.8221L33.0948 69.9009L33.1212 71.9798L34.0225 71.9517L34.9239 71.9237L34.9492 66.7723L34.9745 61.621H33.997H33.0196V63.7694V65.9178H30.0411H27.0626V63.7694V61.621H26.1339H25.2053L25.2306 66.7723ZM40.3743 61.8109C39.9308 62.0123 39.4568 62.584 39.2502 63.1668C39.1581 63.4266 39.1231 64.237 39.1231 66.1131C39.1231 68.4051 39.1444 68.7625 39.3091 69.2381C39.8077 70.677 40.868 71.5454 42.477 71.8324C42.9767 71.9214 44.0587 71.9668 45.7393 71.9691L48.254 71.9725V71.1026V70.2328L45.4952 70.1976C42.8682 70.1642 42.713 70.1518 42.2481 69.9392C41.9795 69.8165 41.6379 69.5993 41.4889 69.4566C41.2216 69.2005 40.9297 68.4401 40.9297 67.9997V67.7733H44.2538H47.5777L47.5497 66.8885L47.5215 66.0038L44.6256 66.0123C43.0329 66.0169 41.546 65.9914 41.3214 65.9555L40.9132 65.8902L40.9459 64.8331C40.9723 63.9777 41.0119 63.7426 41.1529 63.6017C41.3125 63.4424 41.6117 63.4255 44.6685 63.404C46.5062 63.391 48.0427 63.3799 48.0831 63.3796C48.1234 63.3792 48.1563 62.9833 48.1563 62.4999V61.621L44.4698 61.6231C41.0581 61.6251 40.7528 61.6391 40.3743 61.8109ZM58.9973 64.1844L58.9984 66.7479L59.8715 65.8202L60.7446 64.8924L60.7493 63.2567L60.754 61.621H59.8751H58.9962L58.9973 64.1844ZM65.6851 61.7575C65.6317 61.8327 64.7937 62.7445 63.823 63.7839C62.8522 64.8233 61.8959 65.8554 61.6976 66.0776L61.3373 66.4816L63.2105 68.6655C64.2408 69.8666 65.3058 71.1021 65.5773 71.411L66.0709 71.9725H67.221C67.8536 71.9725 68.3704 71.9396 68.3693 71.8993C68.3683 71.8589 67.5963 70.9471 66.6539 69.8729C65.7113 68.7987 64.6772 67.6022 64.3559 67.2141L63.7716 66.5085L64.7757 65.4075C65.328 64.8019 66.3189 63.7268 66.9778 63.0182C67.6367 62.3096 68.1758 61.7054 68.1758 61.6755C68.1758 61.6455 67.6373 61.621 66.9791 61.621C66.0653 61.621 65.7592 61.6533 65.6851 61.7575ZM75.6954 66.7479V71.8749H76.6719H77.6485V66.7479V61.621H76.6719H75.6954V66.7479ZM80.4805 62.4999V63.3788H82.5791H84.6777L84.7031 67.6512L84.7286 71.9237H85.6075H86.4864L86.5352 67.6756L86.584 63.4276L88.6104 63.4012L90.6368 63.3748V62.4979V61.621H85.5587H80.4805V62.4999ZM68.4883 66.8163C68.4203 66.8843 68.3712 67.2105 68.3712 67.5941C68.3712 68.1473 68.4019 68.2711 68.56 68.3558C68.8332 68.502 71.4258 68.4881 71.5743 68.3397C71.7179 68.196 71.7296 67.148 71.5904 66.8879C71.4974 66.7143 71.373 66.6991 70.0474 66.6991C69.0561 66.6991 68.5689 66.7357 68.4883 66.8163ZM59.789 68.3348L59.001 69.1893L58.9986 70.5847L58.9962 71.9801L59.8506 71.9519L60.7051 71.9237L60.7314 69.702C60.7469 68.3875 60.7208 67.4803 60.6673 67.4803C60.6176 67.4803 60.2224 67.8649 59.789 68.3348ZM31.2129 75.7228C30.7749 75.9161 30.5607 76.2117 30.5058 76.6984C30.4232 77.4316 30.948 78.0272 31.6766 78.0272C32.0654 78.0272 32.5527 77.7069 32.6999 77.3546C32.9845 76.6734 32.7237 75.9952 32.0706 75.7188C31.688 75.5569 31.5878 75.5574 31.2129 75.7228ZM40.0997 75.7211C39.731 75.8818 39.6061 76.0347 39.4926 76.4647C39.161 77.7205 40.5234 78.5462 41.4305 77.6391C41.9512 77.1184 41.7618 76.0641 41.0902 75.7454C40.6896 75.5553 40.4912 75.5505 40.0997 75.7211ZM49.2542 75.6818C48.9366 75.8165 48.7796 76.2059 48.9193 76.5123C49.0034 76.6971 49.1737 76.7953 49.6289 76.9219C50.3042 77.1096 50.4421 77.2891 50.1149 77.5541C49.8104 77.8007 49.5604 77.78 49.2641 77.4837C48.9451 77.1647 48.6411 77.226 48.8637 77.5645C49.077 77.8887 49.4276 78.0405 49.8485 77.9905C50.3366 77.9325 50.5977 77.6889 50.5977 77.2915C50.5977 76.9074 50.4559 76.7805 49.8581 76.6298C49.3268 76.4959 49.1243 76.2709 49.3213 76.0334C49.4966 75.8222 49.8376 75.8392 50.1361 76.0741C50.2726 76.1815 50.4104 76.2694 50.4422 76.2694C50.56 76.2694 50.4952 75.8987 50.3574 75.7843C50.1658 75.6252 49.5271 75.5659 49.2542 75.6818ZM51.6475 75.6427C51.5178 75.7724 51.5692 75.8787 51.7616 75.8787C52.2277 75.8787 52.2579 75.9447 52.2579 76.9634C52.2579 77.8644 52.2711 77.9295 52.4532 77.9295C52.6354 77.9295 52.6485 77.8644 52.6485 76.9588V75.9882L53.0147 75.9578C53.2555 75.9379 53.3809 75.8791 53.3809 75.786C53.3809 75.6764 53.1935 75.636 52.5508 75.607C52.0943 75.5863 51.6878 75.6024 51.6475 75.6427ZM55.7953 75.7468C56.4032 77.9572 56.3921 77.9295 56.6663 77.9295C56.9112 77.9295 56.9403 77.8791 57.1466 77.0983C57.2673 76.641 57.3923 76.2926 57.4244 76.324C57.4563 76.3553 57.5742 76.7184 57.6862 77.1308C57.869 77.8034 57.9162 77.8838 58.1447 77.9111C58.371 77.938 58.412 77.8943 58.5109 77.5204C58.5721 77.2889 58.7061 76.7938 58.8085 76.4202C58.9858 75.774 58.9534 75.48 58.7208 75.6238C58.6673 75.6568 58.5229 76.1019 58.3997 76.6129C58.2765 77.1241 58.1464 77.4865 58.1107 77.4185C58.075 77.3504 57.9685 76.9652 57.8742 76.5623C57.5648 75.2413 57.2825 75.2545 56.9569 76.6054C56.8316 77.1251 56.7118 77.5332 56.6908 77.5121C56.6697 77.4911 56.5311 77.0606 56.3827 76.5553C56.1783 75.8595 56.0682 75.6283 55.9292 75.6014C55.7906 75.5747 55.7578 75.6104 55.7953 75.7468ZM60.168 76.7537V77.9295H60.9951C61.69 77.9295 61.813 77.9062 61.7659 77.783C61.7247 77.6757 61.5556 77.6366 61.1341 77.6366H60.5587V77.2948V76.953H61.0958C61.5081 76.953 61.6329 76.919 61.6329 76.8065C61.6329 76.694 61.5081 76.66 61.0958 76.66H60.5587L60.5588 76.2938L60.5591 75.9276L61.1692 75.9214C61.6317 75.9167 61.7794 75.8813 61.7794 75.7749C61.7794 75.6665 61.5959 75.6282 60.9737 75.6063L60.168 75.5779V76.7537ZM63.0001 76.7576V77.9295H63.7107C64.5502 77.9295 64.8555 77.7736 64.8555 77.3451C64.8555 77.1908 64.7837 76.9927 64.6958 76.9048C64.5766 76.7856 64.5642 76.7169 64.6469 76.6342C64.7723 76.5088 64.7923 76.0842 64.6811 75.9093C64.5588 75.7169 64.0925 75.5858 63.5308 75.5858H63.0001V76.7576ZM71.1055 76.7619C71.1055 77.7347 71.1299 77.9295 71.252 77.9295C71.3578 77.9295 71.3985 77.821 71.3985 77.5389V77.1483H71.8912C72.4791 77.1483 72.8633 76.8479 72.8633 76.3885C72.8633 75.9127 72.4843 75.654 71.7402 75.6218L71.1055 75.5944V76.7619ZM74.0968 75.6543C74.0629 75.6882 74.0352 76.214 74.0352 76.8228C74.0352 77.8644 74.0467 77.9295 74.2305 77.9295C74.3933 77.9295 74.4258 77.8644 74.4258 77.5389V77.1483H74.8697C75.8846 77.1483 76.1856 75.9353 75.2298 75.6968C74.8008 75.5897 74.1845 75.5666 74.0968 75.6543ZM27.6723 75.8055C27.6944 75.8727 27.8738 75.9412 28.0711 75.9578L28.4297 75.9882V76.9588C28.4297 77.7566 28.4558 77.9295 28.5762 77.9295C28.6956 77.9295 28.7227 77.7667 28.7227 77.0506C28.7227 76.5672 28.7212 76.1388 28.7195 76.0985C28.7177 76.0581 28.8791 76.0033 29.0781 75.9764C29.277 75.9495 29.458 75.8727 29.48 75.8055C29.5103 75.7135 29.2878 75.6834 28.5762 75.6834C27.8647 75.6834 27.642 75.7135 27.6723 75.8055ZM36.2422 76.8675V78.0516L36.5474 77.9906C36.7153 77.957 37.0273 77.9295 37.2408 77.9295C37.552 77.9295 37.6948 77.8637 37.961 77.5975C38.2444 77.3141 38.293 77.1983 38.293 76.8065C38.293 76.4147 38.2444 76.2989 37.961 76.0155C37.6458 75.7002 37.5939 75.6834 36.9356 75.6834H36.2422V76.8675ZM44.543 76.8065V77.9295H45.3243C45.9536 77.9295 46.1055 77.901 46.1055 77.783C46.1055 77.6691 45.9753 77.6366 45.5196 77.6366H44.9337V76.66C44.9337 75.7486 44.9207 75.6834 44.7383 75.6834C44.5544 75.6834 44.543 75.7486 44.543 76.8065ZM47.1797 76.8065C47.1797 77.8644 47.1911 77.9295 47.3751 77.9295C47.559 77.9295 47.5704 77.8644 47.5704 76.8065C47.5704 75.7486 47.559 75.6834 47.3751 75.6834C47.1911 75.6834 47.1797 75.7486 47.1797 76.8065ZM68.5027 75.8475C68.4681 75.9452 68.3309 76.2889 68.1979 76.6112C68.0649 76.9334 67.8976 77.3619 67.8261 77.5633C67.7048 77.9051 67.7089 77.9295 67.8853 77.9295C68.0056 77.9295 68.0967 77.8407 68.1357 77.6854C68.1924 77.4594 68.24 77.4412 68.7745 77.4412C69.2957 77.4412 69.3628 77.4651 69.4631 77.6854C69.5618 77.9019 69.9454 78.0435 69.9261 77.8563C69.9219 77.8159 69.7119 77.3216 69.4593 76.7576C69.0957 75.9456 68.9549 75.7257 68.7829 75.701C68.6419 75.6807 68.5435 75.7322 68.5027 75.8475ZM31.2862 76.0288C30.4052 76.3993 30.8964 77.9206 31.8219 77.6883C32.2189 77.5887 32.4337 77.285 32.4337 76.8235C32.4337 76.1527 31.8889 75.7754 31.2862 76.0288ZM36.6573 75.9508C36.5726 75.9798 36.5352 76.2445 36.5352 76.8146V77.6366H37.0065C37.3728 77.6366 37.525 77.5863 37.6901 77.4106C37.985 77.0966 37.9812 76.4739 37.6827 76.1981C37.4698 76.0014 36.906 75.8655 36.6573 75.9508ZM40.0433 76.1642C39.832 76.3755 39.7579 76.5423 39.7579 76.8065C39.7579 77.0706 39.832 77.2374 40.0433 77.4488C40.3782 77.7836 40.7063 77.8124 41.0555 77.5377C41.7074 77.025 41.3072 75.8787 40.4764 75.8787C40.3952 75.8787 40.2003 76.0072 40.0433 76.1642ZM63.3907 76.2567V76.66H63.7744C64.1185 76.66 64.4675 76.471 64.4634 76.2868C64.4588 76.0827 64.2422 75.9493 63.8422 75.9042L63.3907 75.8534V76.2567ZM71.4422 75.9652C71.4182 75.9893 71.3985 76.1993 71.3985 76.4322V76.8553H71.7822C72.3259 76.8553 72.6376 76.4784 72.398 76.1104C72.3272 76.0017 71.5273 75.8802 71.4422 75.9652ZM74.5967 75.9549C74.4651 75.9825 74.4258 76.0901 74.4258 76.423C74.4258 76.8472 74.4319 76.8553 74.749 76.8553C75.2022 76.8553 75.4265 76.6658 75.3864 76.3168C75.3601 76.0889 75.2953 76.0209 75.0606 75.9757C74.8995 75.9446 74.6907 75.9353 74.5967 75.9549ZM68.5391 76.5815C68.4499 76.8606 68.393 77.105 68.4127 77.1247C68.4324 77.1444 68.6241 77.1468 68.8387 77.13L69.2291 77.0994L69.0198 76.5868C68.9047 76.3049 68.786 76.0742 68.756 76.0742C68.7259 76.0741 68.6284 76.3024 68.5391 76.5815ZM33.8008 76.9041C33.8008 77.0181 33.931 77.0506 34.3868 77.0506C34.8425 77.0506 34.9727 77.0181 34.9727 76.9041C34.9727 76.7902 34.8425 76.7576 34.3868 76.7576C33.931 76.7576 33.8008 76.7902 33.8008 76.9041ZM63.3907 77.2948V77.6468L63.9034 77.6172C64.4013 77.5886 64.4161 77.5793 64.4161 77.2948C64.4161 77.0102 64.4013 77.0009 63.9034 76.9723L63.3907 76.9427V77.2948Z" fill="white"/>
</svg>
