<svg width="16" height="16" viewBox="0 0 16 16" fill="none" xmlns="http://www.w3.org/2000/svg">
<path d="M7.3335 8.66665H4.00017C3.81128 8.66665 3.65305 8.60265 3.5255 8.47465C3.39794 8.34665 3.33394 8.18843 3.3335 7.99998C3.33305 7.81154 3.39705 7.65332 3.5255 7.52532C3.65394 7.39732 3.81217 7.33332 4.00017 7.33332H7.3335V3.99998C7.3335 3.81109 7.3975 3.65287 7.5255 3.52532C7.6535 3.39776 7.81172 3.33376 8.00016 3.33332C8.18861 3.33287 8.34705 3.39687 8.4755 3.52532C8.60394 3.65376 8.66772 3.81198 8.66683 3.99998V7.33332H12.0002C12.1891 7.33332 12.3475 7.39732 12.4755 7.52532C12.6035 7.65332 12.6673 7.81154 12.6668 7.99998C12.6664 8.18843 12.6024 8.34687 12.4748 8.47532C12.3473 8.60376 12.1891 8.66754 12.0002 8.66665H8.66683V12C8.66683 12.1889 8.60283 12.3473 8.47483 12.4753C8.34683 12.6033 8.18861 12.6671 8.00016 12.6666C7.81172 12.6662 7.6535 12.6022 7.5255 12.4746C7.3975 12.3471 7.3335 12.1889 7.3335 12V8.66665Z" fill="#777777"/>
</svg>
