<svg width="24" height="24" viewBox="0 0 24 24" fill="none" xmlns="http://www.w3.org/2000/svg">
<g clip-path="url(#clip0_264_159)">
<mask id="mask0_264_159" style="mask-type:luminance" maskUnits="userSpaceOnUse" x="0" y="0" width="24" height="24">
<path d="M0 0H24V24H0V0Z" fill="white"/>
</mask>
<g mask="url(#mask0_264_159)">
<path d="M21 10H18.71C18.5723 9.54385 18.3915 9.10185 18.17 8.68L19.79 7.06C20.57 6.28 20.57 5.01 19.79 4.23C19.01 3.45 17.74 3.45 16.96 4.23L15.34 5.85C15.13 5.74 14.92 5.64 14.7 5.55H14.69C14.47 5.46 14.25 5.38 14.02 5.31V3C14.02 1.9 13.12 1 12.02 1C10.92 1 10.02 1.9 10.02 3V5.29C9.79 5.36 9.57 5.44 9.35 5.53H9.34C9.12 5.62 8.91 5.72 8.7 5.83L7.08 4.21C6.3 3.43 5.03 3.43 4.25 4.21C3.47 4.99 3.47 6.26 4.25 7.04L5.87 8.66C5.64848 9.08185 5.46766 9.52385 5.33 9.98H3C1.9 9.98 1 10.88 1 11.98C1 13.08 1.9 13.98 3 13.98H5.29C5.36 14.21 5.44 14.44 5.53 14.66C5.62 14.88 5.72 15.1 5.84 15.31L4.22 16.93C3.44 17.71 3.44 18.98 4.22 19.76C5 20.54 6.27 20.54 7.05 19.76L8.67 18.14C8.88 18.25 9.1 18.35 9.32 18.45C9.54 18.54 9.77 18.62 10 18.69V20.98C10 22.08 10.9 22.98 12 22.98C13.1 22.98 14 22.08 14 20.98V18.69C14.23 18.62 14.46 18.54 14.68 18.45C14.9 18.36 15.12 18.26 15.33 18.14L16.95 19.76C17.73 20.54 19 20.54 19.78 19.76C20.56 18.98 20.56 17.71 19.78 16.93L18.16 15.31C18.27 15.1 18.37 14.88 18.47 14.66C18.56 14.44 18.64 14.21 18.71 13.98H21C22.1 13.98 23 13.08 23 11.98C23 10.88 22.1 9.98 21 9.98V10Z" stroke="#C6C6C6" stroke-width="1.5" stroke-miterlimit="10" stroke-linejoin="round"/>
<path d="M12 16C13.0609 16 14.0783 15.5786 14.8284 14.8284C15.5786 14.0783 16 13.0609 16 12C16 10.9391 15.5786 9.92172 14.8284 9.17157C14.0783 8.42143 13.0609 8 12 8C10.9391 8 9.92172 8.42143 9.17157 9.17157C8.42143 9.92172 8 10.9391 8 12C8 13.0609 8.42143 14.0783 9.17157 14.8284C9.92172 15.5786 10.9391 16 12 16Z" stroke="#C6C6C6" stroke-width="1.5" stroke-miterlimit="10" stroke-linejoin="round"/>
</g>
</g>
<defs>
<clipPath id="clip0_264_159">
<rect width="24" height="24" fill="white"/>
</clipPath>
</defs>
</svg>
