<svg width="16" height="16" viewBox="0 0 16 16" fill="none" xmlns="http://www.w3.org/2000/svg">
<g clip-path="url(#clip0_264_494)">
<path d="M15.1321 8.30863C15.2587 7.72396 15.0254 7.21063 14.6647 6.72396C14.3141 6.25063 13.7701 5.70596 13.0981 5.03396L15.1321 8.30863ZM15.1321 8.30863C15.0054 8.89463 14.5814 9.26463 14.0521 9.55863M15.1321 8.30863L9.82808 11.298M10.6094 10.9446C10.0794 11.1433 9.93541 11.2053 9.82808 11.298M10.6094 10.9446L11.9274 10.4493L11.9329 10.4472C12.8191 10.1142 13.5378 9.84404 14.0521 9.55863M10.6094 10.9446L10.4339 10.4764L10.4335 10.4766L10.6094 10.9446ZM9.82808 11.298C9.77474 11.3451 9.72674 11.3977 9.68408 11.456M9.82808 11.298L9.68408 11.456M14.0521 9.55863L13.8093 9.12153M14.0521 9.55863L13.8094 9.12145C13.8338 9.10792 13.8576 9.09439 13.8809 9.08082C13.8574 9.09451 13.8333 9.10816 13.8087 9.1218M13.8093 9.12153L13.8087 9.1218M13.8093 9.12153C13.4759 9.30656 13.0422 9.48798 12.5014 9.6969C13.0419 9.48798 13.4756 9.30672 13.8087 9.1218M13.8093 9.12153L13.8087 9.1218M9.68408 11.456C9.60141 11.5713 9.55274 11.7206 9.40275 12.2666L9.39408 12.2966M9.68408 11.456L9.39408 12.2966M9.39408 12.2966C9.24208 12.8506 9.11608 13.308 8.97808 13.6513C8.83808 14 8.64941 14.33 8.31008 14.524L9.39408 12.2966ZM6.07971 4.15461C6.06408 4.19717 6.04827 4.24024 6.03228 4.28384L6.07971 4.15461ZM6.07971 4.15461C6.05942 4.20997 6.03883 4.2662 6.01793 4.32329C6.01792 4.32333 6.0179 4.32336 6.01789 4.32339L5.9075 4.62472L6.03214 4.2842L6.07971 4.15461ZM1.81208 8.50143C1.81209 8.5049 1.81212 8.50838 1.81218 8.51185C1.81213 8.50908 1.81209 8.50631 1.81207 8.50354C1.81204 8.49844 1.81205 8.49334 1.8121 8.48824C1.81207 8.49263 1.81206 8.49703 1.81208 8.50143ZM1.81208 8.50143C1.81208 8.50094 1.81208 8.50045 1.81208 8.49996H2.31208L1.81209 8.50289C1.81208 8.5024 1.81208 8.50191 1.81208 8.50143ZM4.43541 12.2686L4.78897 12.6222L4.78918 12.622L4.43541 12.2686ZM4.43541 12.2686L4.08186 12.6222L4.08207 12.6224L4.43541 12.2686ZM5.82542 12.9515L5.53095 12.6571L5.82532 12.9516L5.82542 12.9515ZM5.82542 12.9515L6.17941 12.5986L5.82584 12.9519M5.82542 12.9515L5.82584 12.9519M5.82584 12.9519L5.84763 12.9737L5.84792 12.974C6.09936 13.2259 6.31295 13.4397 6.50058 13.6156C6.31286 13.4399 6.09916 13.2263 5.84778 12.9742C5.84768 12.9741 5.84759 12.974 5.84749 12.9739C5.84022 12.9666 5.83292 12.9593 5.82559 12.9519L5.82573 12.9521L5.82584 12.9519ZM7.53741 13.7286L7.53556 14.2286C7.53566 14.2286 7.53576 14.2286 7.53586 14.2286M7.53741 13.7286L7.53703 14.2286M7.53741 13.7286V14.2286C7.53728 14.2286 7.53716 14.2286 7.53703 14.2286M7.53741 13.7286L7.53703 14.2286M7.53586 14.2286C7.53596 14.2286 7.53605 14.2286 7.53615 14.2286C7.40588 14.2285 7.27674 14.1904 7.13671 14.1144C7.27625 14.1901 7.4056 14.2283 7.53586 14.2286ZM7.53586 14.2286C7.53625 14.2286 7.53664 14.2286 7.53703 14.2286M14.6665 8.00594C14.669 7.8572 14.6382 7.7078 14.5751 7.55173C14.6382 7.70771 14.6691 7.85716 14.6665 8.00594ZM8.98532 1.73872C9.0784 1.80803 9.17512 1.88594 9.27632 1.97227L8.68674 2.13996L8.98525 1.73885C8.98522 1.73883 8.9852 1.73881 8.98517 1.73879C8.96581 1.72438 8.94661 1.71035 8.92756 1.6967C8.94666 1.71033 8.96591 1.72434 8.98532 1.73872ZM4.86717 6.75668C4.94035 6.7041 5.00803 6.64507 5.06978 6.57979C5.00858 6.64502 4.94143 6.70395 4.86796 6.75684C4.67501 6.8955 4.43249 6.9682 3.9708 7.0952L3.89852 7.11491L3.89785 7.1151L3.8999 7.11451C4.40378 6.97563 4.66262 6.90415 4.86781 6.75622L4.57546 6.3507L4.86717 6.75668ZM3.20441 7.31007C2.95634 7.38304 2.74822 7.45042 2.57534 7.51988C2.39907 7.59041 2.25992 7.66311 2.15249 7.74604C2.25997 7.66281 2.39918 7.58999 2.57501 7.51931C2.74798 7.45008 2.95636 7.38284 3.20441 7.31007ZM2.52275 8.8893L2.13146 9.20057C2.13153 9.20066 2.1316 9.20076 2.13167 9.20085L2.52275 8.8893ZM3.05897 10.1831C3.01207 10.1362 2.9665 10.0906 2.92225 10.0462C2.96648 10.0906 3.01202 10.1362 3.05888 10.1832C3.05895 10.1832 3.05903 10.1833 3.05911 10.1834C3.06464 10.1889 3.0702 10.1945 3.07577 10.2001L3.08092 10.2052L3.08106 10.2054L3.40289 10.5275L3.08116 10.2053L3.08101 10.2052L3.0592 10.1833L3.05897 10.1831ZM4.43535 11.5615L4.4352 11.5613L4.08236 11.9146L4.08164 11.9153L3.20356 12.7944L4.08175 11.9154L4.08247 11.9147L4.43535 11.5615ZM1.3333 14.6665L0.979412 14.3133L1.33309 14.6666L1.33314 14.6667L1.33318 14.6666L1.3333 14.6665ZM6.8355 13.9095C6.8353 13.9093 6.8351 13.9091 6.83491 13.909L6.52411 14.3006L6.83577 13.9097C6.83568 13.9096 6.83559 13.9095 6.8355 13.9095ZM9.50133 10.9195L9.50131 10.9195L9.49706 10.9232C9.41648 10.9944 9.34433 11.0737 9.28078 11.1604L9.28076 11.1604L9.27769 11.1647C9.13056 11.3699 9.05987 11.6273 8.92206 12.1289L8.92147 12.131L8.91372 12.1579L8.91368 12.1578L8.9119 12.1643C8.82012 12.4988 8.74129 12.7845 8.66629 13.0264C8.74177 12.7825 8.82094 12.4947 8.91364 12.1577L8.92017 12.1339L8.92046 12.1329L8.94031 12.0601C8.94036 12.0599 8.94041 12.0597 8.94046 12.0595C9.06633 11.6001 9.13993 11.3566 9.27772 11.164C9.34237 11.0742 9.41654 10.993 9.50085 10.9198C9.5153 10.9074 9.53012 10.8953 9.54538 10.8835C9.53032 10.8952 9.51566 10.9071 9.50133 10.9195ZM10.4317 10.4773C10.2122 10.5595 10.0409 10.6238 9.90142 10.6845C10.0255 10.6303 10.1749 10.5732 10.3611 10.5037L10.3612 10.5036L10.4317 10.4773Z" fill="#F1F1F1" stroke="#ABABAB"/>
</g>
<defs>
<clipPath id="clip0_264_494">
<rect width="16" height="16" fill="white"/>
</clipPath>
</defs>
</svg>
